{"title":"Fjallbackamorden.2013.COMPLETE.SWEDiSH.720p.BluRay.x264-iMSORNY","uid":9478529,"size":28208481808,"categoryP":"video","categoryS":"hd___movies","magnet":"?xt=urn:btih:0848c6dfeceb9755ce101fb2b8a2c486b09f6a19&amp;dn=Fjallbackamorden.2013.COMPLETE.SWEDiSH.720p.BluRay.x264-iMSORNY&amp;tr=udp%3A%2F%2Ftracker.openbittorrent.com%3A80&amp;tr=udp%3A%2F%2Fopen.demonii.com%3A1337&amp;tr=udp%3A%2F%2Ftracker.coppersurfer.tk%3A6969&amp;tr=udp%3A%2F%2Fexodus.desync.com%3A6969","seeders":1,"leechers":5,"uploader":null,"files":17,"time":1389746848,"description":"Havet.Ger.Havet.Tar.2013.SWEDiSH.720p.BluRay.x264-iMSORNY\n\nI.Betraktarens.Oga.2013.SWEDiSH.1080p.BluRay.x264-EFFECT\n\nLjusets.Drottning.2013.SWEDiSH.720p.BluRay.x264-iMSORNY\n\nStrandridaren.2013.SWEDiSH.720p.BluRay.x264-iMSORNY\n\nTyskungen.2013.SWEDiSH.720p.BluRay.x264-GNISTOR\n\nVanner.For.Livet.2013.SWEDiSH.720p.BluRay.x264-iMSORNY\n\nFormat                                   : Matroska\nFormat version                           : Version 4 / Version 2\nFile size                                : 4.37 GiB\nDuration                                 : 1h 28mn\nOverall bit rate                         : 7 088 Kbps\nEncoded date                             : UTC 2013-10-18 21:49:10\nWriting application                      : mkvmerge v6.4.1 ('Omega Point') built on Sep 16 2013 22:05:10\nWriting library                          : libebml v1.3.0 + libmatroska v1.4.1\n\nVideo\nID                                       : 1\nFormat                                   : AVC\nFormat/Info                              : Advanced Video Codec\nFormat profile                           : &lt;a class=&quot;__cf_email__&quot; href=&quot;/cdn-cgi/l/email-protection&quot; data-cfemail=&quot;0a42636d624a4639243b&quot;&gt;[email&amp;#160;protected]&lt;/a&gt;&lt;script cf-hash='f9e31' type=&quot;text/javascript&quot;&gt;\n/* &lt;![CDATA[ */!function(){try{var t=&quot;currentScript&quot;in document?document.currentScript:function(){for(var t=document.getElementsByTagName(&quot;script&quot;),e=t.length;e--;)if(t[e].getAttribute(&quot;cf-hash&quot;))return t[e]}();if(t&amp;&amp;t.previousSibling){var e,r,n,i,c=t.previousSibling,a=c.getAttribute(&quot;data-cfemail&quot;);if(a){for(e=&quot;&quot;,r=parseInt(a.substr(0,2),16),n=2;a.length-n;n+=2)i=parseInt(a.substr(n,2),16)^r,e+=String.fromCharCode(i);e=document.createTextNode(e),c.parentNode.replaceChild(e,c)}}}catch(u){}}();/* ]]&gt; */&lt;/script&gt;\nFormat settings, CABAC                   : Yes\nFormat settings, ReFrames                : 5 frames\nCodec ID                                 : V_MPEG4/ISO/AVC\nDuration                                 : 1h 28mn\nBit rate                                 : 5 577 Kbps\nWidth                                    : 1 280 pixels\nHeight                                   : 720 pixels\nDisplay aspect ratio                     : 16:9\nFrame rate mode                          : Constant\nFrame rate                               : 25.000 fps\nColor space                              : YUV\nChroma subsampling                       : 4:2:0\nBit depth                                : 8 bits\nScan type                                : Progressive\nBits/(Pixel*Frame)                       : 0.242\nStream size                              : 3.35 GiB (77%)\nWriting library                          : x264 core 138 r2358 9e941d1\nLanguage                                 : Swedish\nDefault                                  : Yes\nForced                                   : No\n\nAudio\nID                                       : 2\nFormat                                   : DTS\nFormat/Info                              : Digital Theater Systems\nMode                                     : 16\nFormat settings, Endianness              : Big\nCodec ID                                 : A_DTS\nDuration                                 : 1h 28mn\nBit rate mode                            : Constant\nBit rate                                 : 1 509 Kbps\nChannel count                            : 6 channels\nChannel positions                        : Front: L C R, Side: L R, LFE\nSampling rate                            : 48.0 KHz\nBit depth                                : 24 bits\nCompression mode                         : Lossy\nStream size                              : 953 MiB (21%)\nLanguage                                 : Swedish\nDefault                                  : Yes\nForced                                   : No\n","torrent":{"xt":"urn:btih:0848c6dfeceb9755ce101fb2b8a2c486b09f6a19","amp;dn":"Fjallbackamorden.2013.COMPLETE.SWEDiSH.720p.BluRay.x264-iMSORNY","amp;tr":["udp%3A%2F%2Ftracker.openbittorrent.com%3A80","udp%3A%2F%2Fopen.demonii.com%3A1337","udp%3A%2F%2Ftracker.coppersurfer.tk%3A6969","udp%3A%2F%2Fexodus.desync.com%3A6969"],"infoHash":"0848c6dfeceb9755ce101fb2b8a2c486b09f6a19","infoHashBuffer":{"type":"Buffer","data":[8,72,198,223,236,235,151,85,206,16,31,178,184,162,196,134,176,159,106,25]},"announce":[],"urlList":[]}}